<svg width="41" height="23" viewBox="0 0 41 23" fill="none" xmlns="http://www.w3.org/2000/svg">
<path d="M40.4265 4.09294C40.4265 6.1096 38.7901 7.7596 36.7901 7.7596C36.4628 7.7596 36.1537 7.72294 35.8628 7.63127L29.3901 14.1396C29.481 14.4329 29.5174 14.7629 29.5174 15.0929C29.5174 17.1096 27.881 18.7596 25.881 18.7596C23.881 18.7596 22.2446 17.1096 22.2446 15.0929C22.2446 14.7629 22.281 14.4329 22.3719 14.1396L17.7355 9.4646C17.4446 9.55627 17.1174 9.59294 16.7901 9.59294C16.4628 9.59294 16.1355 9.55627 15.8446 9.4646L7.57191 17.8246C7.66282 18.1179 7.69918 18.4296 7.69918 18.7596C7.69918 20.7763 6.06282 22.4263 4.06282 22.4263C2.06282 22.4263 0.426453 20.7763 0.426453 18.7596C0.426453 16.7429 2.06282 15.0929 4.06282 15.0929C4.39009 15.0929 4.69918 15.1296 4.99009 15.2213L13.281 6.8796C13.1901 6.58627 13.1537 6.25627 13.1537 5.92627C13.1537 3.9096 14.7901 2.2596 16.7901 2.2596C18.7901 2.2596 20.4265 3.9096 20.4265 5.92627C20.4265 6.25627 20.3901 6.58627 20.2992 6.8796L24.9355 11.5546C25.2265 11.4629 25.5537 11.4263 25.881 11.4263C26.2083 11.4263 26.5355 11.4629 26.8265 11.5546L33.281 5.02794C33.1901 4.7346 33.1537 4.42294 33.1537 4.09294C33.1537 2.07627 34.7901 0.42627 36.7901 0.42627C38.7901 0.42627 40.4265 2.07627 40.4265 4.09294Z" fill="white"/>
</svg>
