<svg width="31" height="31" viewBox="0 0 31 31" fill="none" xmlns="http://www.w3.org/2000/svg">
<path d="M23.9168 11.7029L13.3118 22.3612L6.95176 15.9692L9.06676 13.8436L13.3118 18.1099L21.8018 9.57727L23.9168 11.7029ZM3.42676 15.4265C3.42676 11.9139 4.95676 8.7632 7.35676 6.56219L10.9268 10.1501V1.10491H1.92676L5.22676 4.42149C2.28676 7.16521 0.426758 11.0697 0.426758 15.4265C0.426758 23.2506 6.35176 29.6727 13.9268 30.4265V27.3813C8.01676 26.6426 3.42676 21.5622 3.42676 15.4265ZM30.4268 15.4265C30.4268 7.60239 24.5018 1.18028 16.9268 0.426514V3.47174C22.8368 4.21043 27.4268 9.29083 27.4268 15.4265C27.4268 18.9391 25.8968 22.0898 23.4968 24.2908L19.9268 20.7029V29.7481H28.9268L25.6268 26.4315C28.5668 23.6878 30.4268 19.7833 30.4268 15.4265Z" fill="white"/>
</svg>
