<svg width="41" height="25" viewBox="0 0 41 25" fill="none" xmlns="http://www.w3.org/2000/svg">
<path d="M34.2599 18.4415C33.1979 17.8558 32.2783 17.8528 31.6548 17.9754C30.5933 18.1842 29.654 18.884 29.0097 19.9459C28.5442 20.7134 28.1418 21.3763 25.8393 21.0763C24.1313 20.854 23.033 21.2607 22.0636 21.6196C22.0634 21.6196 22.0633 21.6196 22.0632 21.6197C22.0631 21.6197 22.063 21.6198 22.0629 21.6198C21.2782 21.9103 20.6583 22.1398 19.6995 22.0434C18.9693 21.9701 18.076 21.4889 17.1162 20.6521C15.5049 19.2472 13.4461 18.4734 11.3189 18.4734C8.80517 18.4734 6.4054 19.5526 4.73099 21.4352L3.53029 19.2539L6.02295 17.5887L5.64182 16.6872C5.07961 15.3573 5.4959 13.9494 6.17309 13.2999C6.94967 12.5552 8.04621 12.31 9.72845 12.505C13.37 12.927 16.0621 12.564 17.9584 11.3951C19.6468 10.3543 20.5777 9.84097 21.8749 9.3826L22.4351 11.4472L23.4588 11.304C27.9369 10.6778 31.6103 8.44374 33.2852 5.32795C33.8532 4.27147 34.5646 3.66613 35.1182 3.32805L36.2333 6.10898C35.5062 6.59663 34.5964 7.41243 34.1509 8.62674C33.8878 9.34436 33.7953 9.93908 33.7136 10.4638C33.6152 11.0967 33.5501 11.5148 33.2231 12.0239C31.96 13.9902 32.6849 15.6227 32.7716 15.8024L33.0929 16.4673H34.8603L35.4113 17.8726L34.2599 18.4415Z" fill="white"/>
<path fill-rule="evenodd" clip-rule="evenodd" d="M36.4605 14.1073H34.8663C34.9085 13.88 35.0036 13.606 35.1976 13.3039C35.7949 12.3741 35.9226 11.5529 36.0352 10.8284C36.1063 10.3718 36.1734 9.94057 36.3559 9.44302C36.5176 9.00227 36.8286 8.64429 37.147 8.37151L38.2491 11.1002L40.4264 10.2129L36.4864 0.42627L35.5292 0.620838C35.4199 0.643025 32.8345 1.19943 31.2178 4.20664C30.0378 6.40158 27.3812 8.10582 24.1491 8.78874L23.5049 6.41464L22.3561 6.75241C20.1346 7.40551 19.0027 7.98222 16.7294 9.38354C15.9526 9.86237 14.9163 10.1564 13.6322 10.2652C12.7614 10.4398 10.5973 10.6484 8.90675 10.0858C7.06841 10.0546 5.63634 10.5516 4.55053 11.593C3.28396 12.8077 2.76835 14.8176 3.17564 16.6564L0.426392 18.493L3.67683 24.3979H5.25357L6.47182 23.0208C7.70135 21.6309 9.46802 20.8339 11.3189 20.8339C12.8802 20.8339 14.392 21.4024 15.576 22.4347C16.9234 23.6096 18.2321 24.2682 19.4657 24.3921C19.6993 24.4156 19.9211 24.4263 20.1327 24.4263C21.2771 24.4263 22.119 24.1146 22.8757 23.8345C23.7287 23.5187 24.4026 23.2693 25.5371 23.4172C26.0164 23.4795 26.4528 23.5094 26.8526 23.5094C29.0946 23.5093 30.1693 22.57 31.0161 21.1744C31.3085 20.6923 31.7169 20.4139 32.1062 20.2919C32.9685 20.0218 34.0614 21.1697 34.0614 21.1697L36.2813 20.0736C36.6763 21.1656 36.877 22.3076 36.877 23.4735H39.2267C39.2267 21.8984 38.9314 20.3581 38.3492 18.8956L36.4605 14.1073ZM31.6548 17.9754C32.2783 17.8528 33.1979 17.8558 34.2599 18.4415L35.4113 17.8726L34.8603 16.4673H33.0929L32.7716 15.8024C32.6849 15.6227 31.96 13.9902 33.2231 12.0239C33.5501 11.5148 33.6152 11.0967 33.7136 10.4638C33.7953 9.93908 33.8878 9.34436 34.1509 8.62674C34.5964 7.41243 35.5062 6.59663 36.2333 6.10898L35.1182 3.32805C34.5646 3.66613 33.8532 4.27147 33.2852 5.32795C31.6103 8.44374 27.9369 10.6778 23.4588 11.304L22.4351 11.4472L21.8749 9.3826C20.5777 9.84097 19.6468 10.3543 17.9584 11.3951C16.0621 12.564 13.37 12.927 9.72845 12.505C8.04621 12.31 6.94967 12.5552 6.17309 13.2999C5.4959 13.9494 5.07961 15.3573 5.64182 16.6872L6.02295 17.5887L3.53029 19.2539L4.73099 21.4352C6.4054 19.5526 8.80517 18.4734 11.3189 18.4734C13.4461 18.4734 15.5049 19.2472 17.1162 20.6521C18.076 21.4889 18.9693 21.9701 19.6995 22.0434C20.6583 22.1398 21.2782 21.9103 22.0629 21.6198L22.0632 21.6197L22.0636 21.6196C23.033 21.2607 24.1313 20.854 25.8393 21.0763C28.1418 21.3763 28.5442 20.7134 29.0097 19.9459C29.654 18.884 30.5933 18.1842 31.6548 17.9754Z" fill="white"/>
</svg>
