<svg width="32" height="32" viewBox="0 0 32 32" fill="none" xmlns="http://www.w3.org/2000/svg">
<path d="M31.4263 29.5672L29.2721 27.4129L8.12832 6.2692L2.28538 0.42627L0.42627 2.28538L4.41009 6.2692H3.46577C1.82798 6.2692 0.529554 7.58239 0.529554 9.22018L0.514799 25.4505C0.514799 27.0883 1.82798 28.4015 3.46577 28.4015H26.5424L29.5672 31.4263L31.4263 29.5672ZM29.9508 9.22018C30.0246 7.58239 28.7114 6.2692 27.0736 6.34298H21.1716V3.31823C21.1716 1.68043 19.8584 0.36725 18.2207 0.441024H12.3187C10.6809 0.36725 9.36773 1.68043 9.36773 3.31823V3.79038L29.9508 24.4472V9.22018ZM18.2207 6.34298H12.2449V3.31823H18.2207V6.34298Z" fill="white"/>
</svg>
