<svg width="31" height="29" viewBox="0 0 31 29" fill="none" xmlns="http://www.w3.org/2000/svg">
<path d="M0.426758 28.4263H5.8813V11.6263H0.426758V28.4263ZM30.4268 13.0263C30.4268 11.4863 29.1995 10.2263 27.6995 10.2263H19.0949L20.3904 3.82827L20.4313 3.38027C20.4313 2.80627 20.1995 2.27427 19.8313 1.89627L18.3858 0.42627L9.41312 9.65227C8.90858 10.1563 8.60858 10.8563 8.60858 11.6263V25.6263C8.60858 27.1663 9.83585 28.4263 11.3358 28.4263H23.6086C24.7404 28.4263 25.7086 27.7263 26.1177 26.7183L30.2358 16.8483C30.3586 16.5263 30.4268 16.1903 30.4268 15.8263V13.0263Z" fill="white"/>
</svg>
