<svg width="14" height="14" viewBox="0 0 14 14" fill="none" xmlns="http://www.w3.org/2000/svg">
<path d="M13 9.62476C12.0625 9.62476 11.1625 9.47476 10.3225 9.19726C10.06 9.11476 9.7675 9.17476 9.5575 9.37726L7.9075 11.0273C5.785 9.94726 4.045 8.21476 2.965 6.08476L4.615 4.42726C4.825 4.23226 4.885 3.93976 4.8025 3.67726C4.525 2.83726 4.375 1.93726 4.375 0.999756C4.375 0.587256 4.0375 0.249756 3.625 0.249756H1C0.5875 0.249756 0.25 0.587256 0.25 0.999756C0.25 8.04226 5.9575 13.7498 13 13.7498C13.4125 13.7498 13.75 13.4123 13.75 12.9998V10.3748C13.75 9.96226 13.4125 9.62476 13 9.62476ZM12.25 6.99976H13.75C13.75 3.27226 10.7275 0.249756 7 0.249756V1.74976C9.9025 1.74976 12.25 4.09726 12.25 6.99976ZM9.25 6.99976H10.75C10.75 4.92976 9.07 3.24976 7 3.24976V4.74976C8.245 4.74976 9.25 5.75476 9.25 6.99976Z" fill="white"/>
</svg>
