<svg width="85" height="85" viewBox="0 0 85 85" fill="none" xmlns="http://www.w3.org/2000/svg">
<rect x="42.4264" y="84.8528" width="60" height="60" rx="8" transform="rotate(-135 42.4264 84.8528)" fill="url(#paint0_linear)"/>
<path d="M56.2599 48.4415C55.1979 47.8558 54.2783 47.8528 53.6548 47.9754C52.5933 48.1842 51.654 48.884 51.0097 49.9459C50.5442 50.7134 50.1418 51.3763 47.8393 51.0763C46.1313 50.854 45.033 51.2607 44.0636 51.6196C44.0634 51.6196 44.0633 51.6196 44.0632 51.6197C44.0631 51.6197 44.063 51.6198 44.0629 51.6198C43.2782 51.9103 42.6583 52.1398 41.6995 52.0434C40.9693 51.9701 40.076 51.4889 39.1162 50.6521C37.5049 49.2472 35.4461 48.4734 33.3189 48.4734C30.8052 48.4734 28.4054 49.5526 26.731 51.4352L25.5303 49.2539L28.0229 47.5887L27.6418 46.6872C27.0796 45.3573 27.4959 43.9494 28.1731 43.2999C28.9497 42.5552 30.0462 42.31 31.7284 42.505C35.37 42.927 38.0621 42.564 39.9584 41.3951C41.6468 40.3543 42.5777 39.841 43.8749 39.3826L44.4351 41.4472L45.4588 41.304C49.9369 40.6778 53.6103 38.4437 55.2852 35.328C55.8532 34.2715 56.5646 33.6661 57.1182 33.3281L58.2333 36.109C57.5062 36.5966 56.5964 37.4124 56.1509 38.6267C55.8878 39.3444 55.7953 39.9391 55.7136 40.4638C55.6152 41.0967 55.5501 41.5148 55.2231 42.0239C53.96 43.9902 54.6849 45.6227 54.7716 45.8024L55.0929 46.4673H56.8603L57.4113 47.8726L56.2599 48.4415Z" fill="white"/>
<path fill-rule="evenodd" clip-rule="evenodd" d="M58.4605 44.1073H56.8663C56.9085 43.88 57.0036 43.606 57.1976 43.3039C57.7949 42.3741 57.9226 41.5529 58.0352 40.8284C58.1063 40.3718 58.1734 39.9406 58.3559 39.443C58.5176 39.0023 58.8286 38.6443 59.147 38.3715L60.2491 41.1002L62.4264 40.2129L58.4864 30.4263L57.5292 30.6208C57.4199 30.643 54.8345 31.1994 53.2178 34.2066C52.0378 36.4016 49.3812 38.1058 46.1491 38.7887L45.5049 36.4146L44.3561 36.7524C42.1346 37.4055 41.0027 37.9822 38.7294 39.3835C37.9526 39.8624 36.9163 40.1564 35.6322 40.2652C34.7614 40.4398 32.5973 40.6484 30.9068 40.0858C29.0684 40.0546 27.6363 40.5516 26.5505 41.593C25.284 42.8077 24.7684 44.8176 25.1756 46.6564L22.4264 48.493L25.6768 54.3979H27.2536L28.4718 53.0208C29.7013 51.6309 31.468 50.8339 33.3189 50.8339C34.8802 50.8339 36.392 51.4024 37.576 52.4347C38.9234 53.6096 40.2321 54.2682 41.4657 54.3921C41.6993 54.4156 41.9211 54.4263 42.1327 54.4263C43.2771 54.4263 44.119 54.1146 44.8757 53.8345C45.7287 53.5187 46.4026 53.2693 47.5371 53.4172C48.0164 53.4795 48.4528 53.5094 48.8526 53.5094C51.0946 53.5093 52.1693 52.57 53.0161 51.1744C53.3085 50.6923 53.7169 50.4139 54.1062 50.2919C54.9685 50.0218 56.0614 51.1697 56.0614 51.1697L58.2813 50.0736C58.6763 51.1656 58.877 52.3076 58.877 53.4735H61.2267C61.2267 51.8984 60.9314 50.3581 60.3492 48.8956L58.4605 44.1073ZM53.6548 47.9754C54.2783 47.8528 55.1979 47.8558 56.2599 48.4415L57.4113 47.8726L56.8603 46.4673H55.0929L54.7716 45.8024C54.6849 45.6227 53.96 43.9902 55.2231 42.0239C55.5501 41.5148 55.6152 41.0967 55.7136 40.4638C55.7953 39.9391 55.8878 39.3444 56.1509 38.6267C56.5964 37.4124 57.5062 36.5966 58.2333 36.109L57.1182 33.3281C56.5646 33.6661 55.8532 34.2715 55.2852 35.328C53.6103 38.4437 49.9369 40.6778 45.4588 41.304L44.4351 41.4472L43.8749 39.3826C42.5777 39.841 41.6468 40.3543 39.9584 41.3951C38.0621 42.564 35.37 42.927 31.7284 42.505C30.0462 42.31 28.9497 42.5552 28.1731 43.2999C27.4959 43.9494 27.0796 45.3573 27.6418 46.6872L28.0229 47.5887L25.5303 49.2539L26.731 51.4352C28.4054 49.5526 30.8052 48.4734 33.3189 48.4734C35.4461 48.4734 37.5049 49.2472 39.1162 50.6521C40.076 51.4889 40.9693 51.9701 41.6995 52.0434C42.6583 52.1398 43.2782 51.9103 44.0629 51.6198L44.0632 51.6197L44.0636 51.6196C45.033 51.2607 46.1313 50.854 47.8393 51.0763C50.1418 51.3763 50.5442 50.7134 51.0097 49.9459C51.654 48.884 52.5933 48.1842 53.6548 47.9754Z" fill="white"/>
<defs>
<linearGradient id="paint0_linear" x1="102.229" y1="145.258" x2="42.125" y2="85.1542" gradientUnits="userSpaceOnUse">
<stop stop-color="#9BCDFF"/>
<stop offset="1" stop-color="#0FE78D"/>
</linearGradient>
</defs>
</svg>
