<svg width="85" height="85" viewBox="0 0 85 85" fill="none" xmlns="http://www.w3.org/2000/svg">
<rect x="42.4264" width="60" height="60" rx="8" transform="rotate(45 42.4264 0)" fill="url(#paint0_linear)"/>
<path d="M50.9168 38.7029L40.3118 49.3612L33.9518 42.9692L36.0668 40.8436L40.3118 45.1099L48.8018 36.5773L50.9168 38.7029ZM30.4268 42.4265C30.4268 38.9139 31.9568 35.7632 34.3568 33.5622L37.9268 37.1501V28.1049H28.9268L32.2268 31.4215C29.2868 34.1652 27.4268 38.0697 27.4268 42.4265C27.4268 50.2506 33.3518 56.6727 40.9268 57.4265V54.3813C35.0168 53.6426 30.4268 48.5622 30.4268 42.4265ZM57.4268 42.4265C57.4268 34.6024 51.5018 28.1803 43.9268 27.4265V30.4717C49.8368 31.2104 54.4268 36.2908 54.4268 42.4265C54.4268 45.9391 52.8968 49.0898 50.4968 51.2908L46.9268 47.7029V56.7481H55.9268L52.6268 53.4315C55.5668 50.6878 57.4268 46.7833 57.4268 42.4265Z" fill="white"/>
<defs>
<linearGradient id="paint0_linear" x1="42.125" y1="0.301418" x2="102.229" y2="60.4055" gradientUnits="userSpaceOnUse">
<stop stop-color="#9BCDFF"/>
<stop offset="1" stop-color="#0FE78D"/>
</linearGradient>
</defs>
</svg>
