<svg width="85" height="85" viewBox="0 0 85 85" fill="none" xmlns="http://www.w3.org/2000/svg">
<rect x="42.4264" y="84.8528" width="60" height="60" rx="8" transform="rotate(-135 42.4264 84.8528)" fill="url(#paint0_linear)"/>
<path d="M58.4263 56.5672L56.2721 54.4129L35.1283 33.2692L29.2854 27.4263L27.4263 29.2854L31.4101 33.2692H30.4658C28.828 33.2692 27.5296 34.5824 27.5296 36.2202L27.5148 52.4505C27.5148 54.0883 28.828 55.4015 30.4658 55.4015H53.5424L56.5672 58.4263L58.4263 56.5672ZM56.9508 36.2202C57.0246 34.5824 55.7114 33.2692 54.0736 33.343H48.1716V30.3182C48.1716 28.6804 46.8584 27.3673 45.2207 27.441H39.3187C37.6809 27.3673 36.3677 28.6804 36.3677 30.3182V30.7904L56.9508 51.4472V36.2202ZM45.2207 33.343H39.2449V30.3182H45.2207V33.343Z" fill="white"/>
<defs>
<linearGradient id="paint0_linear" x1="102.229" y1="145.258" x2="42.125" y2="85.1542" gradientUnits="userSpaceOnUse">
<stop stop-color="#9BCDFF"/>
<stop offset="1" stop-color="#0FE78D"/>
</linearGradient>
</defs>
</svg>
