<svg width="85" height="85" viewBox="0 0 85 85" fill="none" xmlns="http://www.w3.org/2000/svg">
<rect x="42.4264" y="84.8528" width="60" height="60" rx="8" transform="rotate(-135 42.4264 84.8528)" fill="url(#paint0_linear)"/>
<path d="M27.4268 56.4263H32.8813V39.6263H27.4268V56.4263ZM57.4268 41.0263C57.4268 39.4863 56.1995 38.2263 54.6995 38.2263H46.0949L47.3904 31.8283L47.4313 31.3803C47.4313 30.8063 47.1995 30.2743 46.8313 29.8963L45.3858 28.4263L36.4131 37.6523C35.9086 38.1563 35.6086 38.8563 35.6086 39.6263V53.6263C35.6086 55.1663 36.8358 56.4263 38.3358 56.4263H50.6086C51.7404 56.4263 52.7086 55.7263 53.1177 54.7183L57.2358 44.8483C57.3586 44.5263 57.4268 44.1903 57.4268 43.8263V41.0263Z" fill="white"/>
<defs>
<linearGradient id="paint0_linear" x1="102.229" y1="145.258" x2="42.125" y2="85.1542" gradientUnits="userSpaceOnUse">
<stop stop-color="#9BCDFF"/>
<stop offset="1" stop-color="#0FE78D"/>
</linearGradient>
</defs>
</svg>
