<svg width="25" height="25" viewBox="0 0 25 25" fill="none" xmlns="http://www.w3.org/2000/svg">
<path d="M12.5732 6.12061C9.17022 6.12061 6.41522 8.87861 6.41522 12.2786C6.41522 15.6816 9.17322 18.4366 12.5732 18.4366C15.9762 18.4366 18.7312 15.6786 18.7312 12.2786C18.7312 8.87561 15.9732 6.12061 12.5732 6.12061ZM12.5732 16.2756C10.3642 16.2756 8.57622 14.4866 8.57622 12.2786C8.57622 10.0706 10.3652 8.28161 12.5732 8.28161C14.7812 8.28161 16.5702 10.0706 16.5702 12.2786C16.5712 14.4866 14.7822 16.2756 12.5732 16.2756Z" fill="white"/>
<path d="M17.5168 0.359566C15.3088 0.256566 9.83977 0.261566 7.62977 0.359566C5.68777 0.450566 3.97477 0.919566 2.59377 2.30057C0.28577 4.60857 0.58077 7.71857 0.58077 12.2796C0.58077 16.9476 0.32077 19.9856 2.59377 22.2586C4.91077 24.5746 8.06577 24.2716 12.5728 24.2716C17.1968 24.2716 18.7928 24.2746 20.4278 23.6416C22.6508 22.7786 24.3288 20.7916 24.4928 17.2226C24.5968 15.0136 24.5908 9.54557 24.4928 7.33557C24.2948 3.12257 22.0338 0.567566 17.5168 0.359566ZM21.0118 20.7316C19.4988 22.2446 17.3998 22.1096 12.5438 22.1096C7.54377 22.1096 5.53877 22.1836 4.07577 20.7166C2.39077 19.0396 2.69577 16.3466 2.69577 12.2636C2.69577 6.73857 2.12877 2.75957 7.67377 2.47557C8.94777 2.43057 9.32277 2.41557 12.5298 2.41557L12.5748 2.44557C17.9038 2.44557 22.0848 1.88757 22.3358 7.43157C22.3928 8.69657 22.4058 9.07657 22.4058 12.2786C22.4048 17.2206 22.4988 19.2376 21.0118 20.7316Z" fill="white"/>
<path d="M18.9753 7.31648C19.7701 7.31648 20.4143 6.67221 20.4143 5.87748C20.4143 5.08274 19.7701 4.43848 18.9753 4.43848C18.1806 4.43848 17.5363 5.08274 17.5363 5.87748C17.5363 6.67221 18.1806 7.31648 18.9753 7.31648Z" fill="white"/>
</svg>
