<svg width="69" height="47" viewBox="0 0 69 47" fill="none" xmlns="http://www.w3.org/2000/svg">
<path d="M45.6202 46.9034H0V0H45.6202V16.0478H43.5054V2.17434H2.11264V44.7291H43.5054V30.7508H45.6202V46.9034Z" fill="#F41707"/>
<path d="M9.31946 18.6353H11.4388V22.7879L14.4714 18.6353H17.0142L13.5315 23.0341L17.2913 28.1667H14.6044L11.4388 23.6312V28.1667H9.31946V18.6353Z" fill="#F41707"/>
<path d="M22.8179 26.2016C24.5271 26.2016 25.4139 24.9594 25.4139 23.4005C25.4139 21.7093 24.27 20.5993 22.8179 20.5993C21.3282 20.5993 20.2242 21.7093 20.2242 23.4005C20.2242 24.9845 21.3792 26.2016 22.8179 26.2016ZM22.8179 18.6187C25.5558 18.6187 27.5997 20.4534 27.5997 23.4005C27.5997 26.2016 25.5558 28.1823 22.8179 28.1823C20.0823 28.1823 18.0383 26.3452 18.0383 23.4005C18.0383 20.7178 19.9537 18.6187 22.8179 18.6187Z" fill="#F41707"/>
<path d="M36.5096 28.1661L32.1135 22.4476V28.1661H30.125V18.6367H31.8209L36.2192 24.3803L36.2147 18.6367H38.201L38.2054 28.1661H36.5096Z" fill="#F41707"/>
<path d="M40.7568 18.6353H48.4382V20.6774H45.6561V28.1667H43.5368V20.6774H40.7568V18.6353Z" fill="#F41707"/>
<path d="M58.7161 24.0663C58.7161 26.9791 56.916 28.1642 54.9297 28.1642C52.5466 28.1642 50.8906 26.7626 50.8906 23.9706V18.6396H53.0099V23.5079C53.0099 24.9917 53.4466 26.1221 54.9297 26.1221C56.2132 26.1221 56.5968 25.1558 56.5968 23.631V18.6396H58.7161V24.0663Z" fill="#F41707"/>
<path d="M63.3842 20.7091V22.8196H64.1512C64.9604 22.8196 65.5944 22.5188 65.5944 21.7165C65.5944 21.1855 65.3328 20.7068 64.3131 20.7068C63.9938 20.7068 63.8209 20.6955 63.3842 20.7091ZM61.2649 28.1642V18.6396C61.7814 18.6396 64.1512 18.6396 64.4172 18.6396C66.9467 18.6396 67.8467 19.9319 67.8467 21.6892C67.8467 23.4578 66.7871 24.1803 66.2838 24.4401L68.964 28.1642H66.3947L64.1645 24.8618H63.3842V28.1642H61.2649Z" fill="#F41707"/>
</svg>
