<svg width="250" height="88" viewBox="0 0 250 88" fill="none" xmlns="http://www.w3.org/2000/svg">
<g clip-path="url(#clip0)">
<path d="M14.8661 50.7315C10.2936 44.9868 4.50964 43.2013 1.18774 42.6191C2.08661 48.7131 3.53262 54.4578 5.95563 58.7272C8.92584 63.9285 13.1075 68.8582 17.3283 73.0504C18.8524 67.4608 20.3766 57.6405 14.8661 50.7315Z" fill="#086972"/>
<path d="M23.3468 46.3842C16.3904 35.3994 5.48669 33.0705 0.249817 32.6047C0.367061 35.1665 0.60155 37.806 0.914199 40.3678C4.4315 40.8335 11.1925 42.6191 16.5857 49.3729C23.1905 57.6405 20.8847 69.1297 19.126 74.836C21.4318 77.0095 23.6985 79.0276 25.7698 80.6971C28.2319 73.6325 31.4757 59.2323 23.3468 46.3842Z" fill="#086972"/>
<path d="M47.6943 24.0654V76.3497C53.0093 71.4977 58.7152 65.3259 62.4669 58.7273C66.5314 51.5467 67.9383 40.1738 68.2899 30.043C67.391 29.1502 63.7956 26.2779 54.3381 24.6865C51.9151 24.2983 49.6875 24.1043 47.6943 24.0654Z" fill="#086972"/>
<path d="M38.4321 84.0351C40.3862 82.56 42.8483 80.6196 45.5058 78.2902V24.1042C41.9494 24.2207 39.4482 24.7253 38.4321 24.9582V84.0351Z" fill="#086972"/>
<path d="M68.4075 21.6201C67.9384 21.1155 64.6164 17.8162 54.2209 16.0696C44.646 14.4393 37.885 16.4577 37.8068 16.4965C37.2206 16.6518 36.6344 16.3413 36.439 15.759C36.2826 15.2156 36.5953 14.5946 37.1815 14.4005C37.4551 14.3228 44.4506 12.2268 54.6117 13.9347C62.1153 15.1768 66.2186 17.2728 68.3293 18.7478C68.1336 12.3821 67.7038 7.99598 67.7038 7.99598C67.7038 7.99598 67.5086 9.50975 55.9014 8.84989C44.2943 8.19002 36.0872 0 34.2114 0C32.3354 0 24.0893 8.19002 12.5213 8.84989C0.914195 9.50975 0.71879 7.99598 0.71879 7.99598C0.71879 7.99598 0.210735 12.8478 0.0544104 19.7182C1.38317 20.0675 7.67523 21.5037 16.234 20.0675C27.6066 18.1268 31.163 15.332 31.2021 15.2933C31.6711 14.9439 32.3354 14.9827 32.7263 15.4485C33.1171 15.9143 33.078 16.5741 32.609 16.9623C32.4527 17.1176 28.74 20.184 16.5857 22.2023C13.6937 22.707 11.0362 22.8622 8.69132 22.8622C4.50966 22.8622 1.42225 22.28 0.0153321 21.9694C-0.0237491 24.2596 0.0153301 26.7825 0.0934926 29.3444C2.00847 29.8101 7.9879 30.897 15.8432 29.5773C27.1767 27.6753 30.655 24.8418 30.6941 24.8418C31.1239 24.4149 31.8274 24.4925 32.2182 24.9194C32.609 25.3852 32.5699 26.0839 32.1401 26.4721C31.9837 26.5885 28.3492 29.6937 16.1949 31.7509C13.7328 32.1391 11.5052 32.3332 9.4339 32.3719C14.788 34.3515 20.8065 38.0778 25.3009 45.181C34.2114 59.3095 30.2642 75.03 27.6457 82.2109C31.5147 85.2772 34.2114 87.0629 34.2114 87.0629C34.2114 87.0629 34.9539 86.5584 36.2435 85.6264V24.2207C36.2435 23.755 36.5562 23.328 36.9861 23.2116C37.0643 23.1339 37.1815 23.0563 37.2987 23.0175C37.5723 22.9398 44.5679 20.8438 54.7289 22.5517C62.1541 23.7938 66.258 25.851 68.3681 27.326C68.4075 25.3464 68.4075 23.4056 68.4075 21.6201Z" fill="#086972"/>
<path d="M85.5217 54.0874C84.7397 54.0486 83.7631 53.9709 83.0206 53.8545V51.3703C84.7791 51.1763 86.6159 51.2151 88.4138 51.2151H101.076C102.913 51.2151 104.711 51.1763 106.508 51.3703V53.8545C105.765 53.9709 104.789 54.0486 103.968 54.0874V73.534C104.789 73.5726 105.765 73.6502 106.508 73.7279V76.212C102.952 76.6389 99.278 76.6389 95.7609 76.212V73.7279C96.5034 73.6502 97.4412 73.5726 98.262 73.534V54.7085H91.2666V73.534C92.048 73.5726 93.0251 73.6502 93.7677 73.7279V76.212C90.2506 76.6389 86.5377 76.6389 83.0206 76.212V73.7279C83.7631 73.6502 84.7397 73.5726 85.5217 73.534V54.0874Z" fill="#086972"/>
<path d="M122.414 69.6134H115.536L114.442 73.534C115.223 73.5726 116.2 73.6502 116.943 73.7279V76.212C113.386 76.6389 112.019 76.6389 108.501 76.212V73.7279C109.244 73.6502 109.752 73.5726 110.534 73.534L116.005 54.0874C115.184 54.0485 114.129 53.9709 113.386 53.8545V51.3703C116.708 50.9822 119.327 51.0209 122.649 51.1762L129.253 73.534C130.074 73.5726 130.309 73.6502 131.051 73.7279V76.212C127.534 76.6389 124.564 76.6389 121.007 76.212V73.7279C121.789 73.6502 122.727 73.5726 123.509 73.534L122.414 69.6134ZM121.437 66.1202L118.897 57.2313L116.474 66.1202H121.437Z" fill="#086972"/>
<path d="M135.546 54.0874C134.725 54.0486 133.787 53.9709 133.044 53.8545V51.3703C134.92 51.1763 136.835 51.2151 138.711 51.2151H145.316C149.771 51.2151 154.031 53.8545 153.992 58.8617C153.953 63.8691 149.888 66.7024 144.964 66.7024H141.251V73.534C142.072 73.5726 143.049 73.6502 143.792 73.7279V76.212C140.235 76.6389 136.562 76.6389 133.044 76.212V73.7279C133.787 73.6502 134.725 73.5726 135.546 73.534V54.0874ZM143.909 63.0539C145.745 63.0539 147.817 61.5788 147.856 59.1332C147.895 56.6104 145.98 55.0578 143.909 55.0578H141.251V63.0539H143.909Z" fill="#086972"/>
<path d="M167.514 73.5341C168.334 73.5726 169.312 73.6503 170.054 73.7279V76.2121C166.498 76.6389 162.824 76.6389 159.307 76.2121V73.7279C160.05 73.6503 160.987 73.5726 161.769 73.5341V55.1354H159.111C158.955 56.5716 158.408 58.4734 157.861 59.4825H155.203C154.89 56.9207 154.89 54.0486 155.125 51.4868C156.571 51.2928 157.666 51.2151 159.072 51.2151H170.249C171.656 51.2151 172.79 51.2928 174.197 51.4868C174.431 54.0486 174.432 56.9207 174.079 59.4825H171.461C170.953 58.4734 170.406 56.5716 170.211 55.1354H167.514V73.5341Z" fill="#086972"/>
<path d="M179.238 54.0874C178.457 54.0485 177.519 53.9709 176.737 53.8544V51.3702C180.293 50.9433 183.928 50.9433 187.523 51.3702V53.8544C186.703 53.9709 185.765 54.0485 184.983 54.0874V61.6564H192.291V54.0874C191.51 54.0485 190.572 53.9709 189.79 53.8544V51.3702C193.346 50.9433 196.981 50.9433 200.576 51.3702V53.8544C199.756 53.9709 198.818 54.0485 198.037 54.0874V73.534C198.818 73.5725 199.756 73.6502 200.576 73.7278V76.212C196.981 76.6388 193.346 76.6388 189.79 76.212V73.7278C190.572 73.6502 191.51 73.5725 192.291 73.534V65.1887H184.983V73.534C185.765 73.5725 186.703 73.6502 187.523 73.7278V76.212C183.928 76.6388 180.293 76.6388 176.737 76.212V73.7278C177.519 73.6502 178.457 73.5725 179.238 73.534V54.0874Z" fill="#086972"/>
<path d="M206.283 54.0874C205.54 54.0486 204.563 53.9709 203.82 53.8545V51.3703C205.579 51.1763 207.416 51.2151 209.213 51.2151H217.733C219.14 51.2151 220.273 51.2927 221.68 51.4867C221.915 54.0486 221.915 56.4551 221.602 58.9779H218.945C218.437 57.9688 217.929 56.5716 217.694 55.1354H212.066V61.8895H214.646C214.802 60.9189 215.115 60.0652 215.466 59.4439H217.616C217.967 62.1219 217.967 64.8781 217.655 67.5561H215.506C215.115 66.8963 214.92 66.2364 214.646 65.305H212.066V72.4473H217.694C217.929 71.0108 218.437 69.6134 218.945 68.6043H221.602C221.915 71.1661 221.915 73.6117 221.68 76.0958C220.273 76.3288 219.14 76.4065 217.733 76.4065H209.213C207.416 76.4065 205.579 76.445 203.82 76.212V73.7279C204.563 73.6502 205.54 73.5726 206.283 73.534V54.0874Z" fill="#086972"/>
<path d="M227.777 54.0874C226.995 54.0486 226.058 53.9709 225.315 53.8545V51.3703C227.191 51.1763 229.106 51.2151 230.982 51.2151H237.547C242.042 51.2151 246.301 53.8545 246.263 58.8617C246.223 63.8691 242.159 66.7024 237.196 66.7024H233.522V73.534C234.304 73.5726 235.281 73.6502 236.062 73.7279V76.212C232.467 76.6389 228.832 76.6389 225.315 76.212V73.7279C226.058 73.6502 226.995 73.5726 227.777 73.534V54.0874ZM236.14 63.0539C238.017 63.0539 240.088 61.5788 240.127 59.1332C240.166 56.6104 238.251 55.0578 236.14 55.0578H233.522V63.0539H236.14Z" fill="#086972"/>
<path d="M86.0371 14.8557C85.1319 14.7808 84.0006 14.706 83.0206 14.5563V11.5624C85.1319 11.3379 87.3191 11.3379 89.5063 11.3379H101.045C102.78 11.3379 104.439 11.4876 106.249 11.7121C106.325 15.1551 106.174 17.9244 105.646 21.517H102.403C101.8 19.6458 101.422 17.9992 101.422 16.1281H93.0508V23.1636H97.1233C102.478 23.1636 108.135 26.3821 108.135 32.4446C108.135 39.4053 102.026 41.9501 96.068 41.9501H89.5063C87.3191 41.9501 85.2078 41.9501 83.0206 41.7256V38.7317C84.0006 38.5821 85.1319 38.5072 86.0371 38.4323V14.8557ZM95.9167 27.5796H93.0508V37.3097H95.9167C98.1039 37.3097 100.668 35.4385 100.668 32.4446C100.668 29.4508 98.4059 27.5796 95.9167 27.5796Z" fill="#086972"/>
<path d="M114.117 14.4812C113.125 14.4059 111.981 14.3305 110.989 14.1799V11.1665C115.338 10.6392 119.764 10.6392 124.113 11.1665V14.1799C123.197 14.3305 121.977 14.4059 121.061 14.4812V31.3559C121.595 29.8492 122.129 28.1919 122.663 27.0619L129.531 11.2419C133.118 10.7145 135.025 10.6392 139.527 11.2419V14.2552C138.612 14.4059 137.467 14.4812 136.475 14.5565V38.2866C137.467 38.2866 138.612 38.4373 139.527 38.5126V41.5259C135.177 42.0533 130.752 42.0533 126.479 41.5259V38.5126C127.394 38.4373 128.539 38.2866 129.531 38.2866V21.2612H129.455C129.15 22.5419 128.768 23.7472 128.234 24.9525L121.061 41.5259C117.474 42.0533 115.49 42.1286 110.989 41.5259V38.5126C111.981 38.3619 113.125 38.2866 114.117 38.2113V14.4812Z" fill="#086972"/>
<path d="M149.129 32.2349C149.051 34.8708 150.37 36.9796 153.317 36.8289C156.342 36.8289 157.506 34.8708 157.506 32.5361C157.506 28.2434 154.015 27.5656 150.603 27.8668V23.5741C153.628 23.8753 156.342 22.7456 156.342 19.7331C156.42 17.8503 154.481 16.0428 152.309 16.0428C149.905 16.0428 147.655 16.8713 147.19 20.9381H143.312C143.157 18.0763 143.157 15.7416 143.389 13.0303C145.561 11.9006 148.198 10.771 152.697 10.771C158.824 10.771 163.633 13.3316 163.633 19.2059C163.555 21.3146 162.392 24.0259 159.678 25.2309V25.3062C162.47 26.2853 164.642 28.4693 164.642 32.4608C164.642 39.2389 159.367 41.9501 153.084 41.9501C148.121 41.9501 143.235 39.7661 142.459 34.0424C142.459 33.4399 142.381 32.8374 142.381 32.1596C142.459 32.1596 142.459 32.1596 142.459 32.1596C144.863 31.8584 146.802 31.9336 149.129 32.2349Z" fill="#086972"/>
<path d="M170.527 14.4846C169.618 14.4092 168.481 14.3338 167.495 14.183V11.1669C171.816 10.639 176.289 10.639 180.61 11.1669V14.183C179.7 14.3338 178.563 14.4092 177.578 14.4846V23.7592H186.523V14.4846C185.537 14.4092 184.4 14.3338 183.414 14.183V11.1669C187.812 10.639 192.208 10.639 196.605 11.1669V14.183C195.619 14.3338 194.482 14.4092 193.497 14.4846V38.2366C194.482 38.3119 195.619 38.3873 196.605 38.5382V41.5543C192.208 42.0821 187.812 42.0821 183.414 41.5543V38.5382C184.4 38.3873 185.537 38.3119 186.523 38.2366V28.0571H177.578V38.2366C178.563 38.3119 179.7 38.3873 180.61 38.5382V41.5543C176.289 42.0821 171.816 42.0821 167.495 41.5543V38.5382C168.481 38.3873 169.618 38.3119 170.527 38.2366V14.4846Z" fill="#086972"/>
<path d="M203.092 14.8557C202.173 14.7808 200.948 14.706 200.03 14.5563V11.5624C202.173 11.3379 204.47 11.3379 206.689 11.3379H217.177C218.938 11.3379 220.316 11.4876 222.076 11.7121C222.382 14.7808 222.382 17.6999 221.924 20.8434H218.708C218.096 19.571 217.407 17.9244 217.177 16.1281H210.211V24.3612H213.426C213.579 23.1636 213.962 22.1158 214.421 21.3673H217.024C217.483 24.6606 217.483 27.9538 217.1 31.1722H214.421C213.962 30.4238 213.732 29.6004 213.426 28.4777H210.211V37.1599H217.177C217.407 35.4385 218.096 33.717 218.708 32.5195H221.924C222.382 35.5882 222.382 38.5072 222.076 41.5759C220.316 41.8753 218.938 41.9501 217.177 41.9501H206.689C204.47 41.9501 202.173 41.9501 200.03 41.7256V38.7317C200.948 38.5821 202.173 38.5072 203.092 38.4323V14.8557Z" fill="#086972"/>
<path d="M238.284 42.517C229.751 42.517 225.144 37.3263 225.144 26.7192C225.144 16.1874 229.448 10.771 238.812 10.771C242.362 10.771 245.76 11.8994 248.705 14.6076C248.932 17.5415 248.932 18.9708 248.781 22.2056C246.213 22.4313 244.854 22.4313 243.192 22.2056C242.89 17.3158 241.38 15.5103 238.435 15.5103C233.526 15.4351 232.922 22.7322 232.922 26.7192C232.922 30.7063 233.451 37.9281 238.51 37.7777C241.38 37.7025 242.513 34.8438 242.588 30.6311C244.929 30.4054 247.195 30.4806 249.687 30.6311C249.536 37.2511 245.684 42.517 238.284 42.517Z" fill="#086972"/>
</g>
<defs>
<clipPath id="clip0">
<rect width="250" height="87.3016" fill="white"/>
</clipPath>
</defs>
</svg>
