<svg width="303" height="774" viewBox="0 0 303 774" fill="none" xmlns="http://www.w3.org/2000/svg">
<g opacity="0.2" clip-path="url(#clip0)">
<path d="M131.687 449.777C91.1833 398.846 39.9476 383.016 10.5216 377.854C18.484 431.883 31.2929 482.814 52.7564 520.666C79.067 566.779 116.109 610.485 153.497 647.652C166.999 598.096 180.5 511.031 131.687 449.777Z" fill="#086972"/>
<path d="M206.81 411.235C145.189 313.846 48.6022 293.198 2.21301 289.069C3.25158 311.781 5.32873 335.182 8.09823 357.895C39.2551 362.024 99.1455 377.854 146.919 437.733C205.425 511.031 185.001 612.892 169.422 663.484C189.847 682.753 209.926 700.646 228.274 715.447C250.083 652.814 278.817 525.144 206.81 411.235Z" fill="#086972"/>
<path d="M605.966 191.68C601.81 187.206 572.384 157.955 480.298 142.47C395.482 128.016 335.592 145.911 334.899 146.255C329.707 147.631 324.514 144.879 322.783 139.717C321.398 134.899 324.168 129.393 329.361 127.672C331.784 126.984 393.752 108.401 483.76 123.542C550.229 134.554 586.576 153.137 605.274 166.214C603.539 109.777 599.732 70.8909 599.732 70.8909C599.732 70.8909 598.003 84.3117 495.184 78.4615C392.367 72.6113 319.667 0 303.05 0C286.433 0 213.388 72.6113 110.916 78.4615C8.0981 84.3117 6.36717 70.8909 6.36717 70.8909C6.36717 70.8909 1.86673 113.907 0.481977 174.818C12.2524 177.915 67.9886 190.648 143.804 177.915C244.544 160.709 276.048 135.931 276.394 135.587C280.548 132.49 286.433 132.834 289.895 136.963C293.357 141.093 293.011 146.943 288.857 150.385C287.472 151.761 254.584 178.947 146.919 196.842C121.301 201.316 97.761 202.692 76.9893 202.692C39.9474 202.692 12.5986 197.53 0.135814 194.777C-0.210374 215.081 0.135797 237.449 0.828174 260.162C17.7914 264.291 70.7583 273.927 140.342 262.227C240.736 245.364 271.547 220.243 271.894 220.243C275.701 216.458 281.933 217.146 285.395 220.931C288.857 225.061 288.51 231.255 284.703 234.696C283.318 235.729 251.122 263.259 143.458 281.498C121.648 284.939 101.915 286.66 83.5672 287.004C130.995 304.554 184.308 337.591 224.12 400.567C303.05 525.827 268.085 665.203 244.891 728.867C279.163 756.052 303.05 771.884 303.05 771.884C303.05 771.884 309.628 767.411 321.052 759.148V214.737C321.052 210.607 323.822 206.822 327.63 205.79C328.322 205.101 329.361 204.413 330.399 204.069C332.822 203.381 394.79 184.798 484.799 199.939C550.572 210.951 586.925 229.19 605.617 242.267C605.966 224.716 605.966 207.51 605.966 191.68Z" fill="#086972"/>
</g>
<defs>
<clipPath id="clip0">
<rect width="303" height="774" fill="white"/>
</clipPath>
</defs>
</svg>
