<svg width="150" height="150" viewBox="0 0 150 150" fill="none" xmlns="http://www.w3.org/2000/svg">
<g clip-path="url(#clip0)">
<path d="M146.925 0.0185847C117.644 -0.506415 84.2499 14.7998 63.1124 38.5436C42.9123 38.9248 23.2436 47.2061 8.76235 61.6873C7.9186 62.5186 7.6186 63.7623 7.98735 64.8873C8.36235 66.0186 9.33735 66.8373 10.5124 67.0061L34.5998 70.4561L31.6249 73.7873C30.5186 75.0248 30.5749 76.9061 31.7499 78.0811L71.9186 118.25C72.5249 118.856 73.3249 119.162 74.1311 119.162C74.8749 119.162 75.6186 118.9 76.2124 118.369L79.5436 115.394L82.9936 139.481C83.1624 140.656 84.0874 141.519 85.2061 141.894C85.4936 141.987 85.7936 142.031 86.0999 142.031C86.9874 142.031 87.8936 141.644 88.5186 141.025C102.8 126.744 111.081 107.075 111.462 86.8748C135.231 65.6936 150.662 32.3123 149.981 3.06858C149.937 1.40608 148.594 0.0623347 146.925 0.0185847ZM118.125 53.9686C115.081 57.0123 111.081 58.5373 107.075 58.5373C103.069 58.5373 99.0686 57.0123 96.0249 53.9686C89.9374 47.8748 89.9374 37.9623 96.0249 31.8686C102.119 25.7748 112.031 25.7748 118.125 31.8686C124.219 37.9623 124.219 47.8811 118.125 53.9686Z" fill="url(#paint0_linear)"/>
<path d="M17.0248 105.656C10.3373 112.344 1.15607 142.556 0.131067 145.975C-0.200183 147.075 0.106067 148.269 0.912317 149.081C1.51232 149.681 2.30607 150 3.12482 150C3.42482 150 3.72482 149.956 4.02482 149.869C7.44357 148.844 37.6561 139.662 44.3436 132.975C51.8748 125.444 51.8748 113.187 44.3436 105.656C36.8061 98.1249 24.5561 98.1312 17.0248 105.656Z" fill="url(#paint1_linear)"/>
</g>
<defs>
<linearGradient id="paint0_linear" x1="149.535" y1="142.991" x2="7.2633" y2="0.573738" gradientUnits="userSpaceOnUse">
<stop stop-color="#9BCDFF"/>
<stop offset="1" stop-color="#0FE78D"/>
</linearGradient>
<linearGradient id="paint1_linear" x1="49.8276" y1="150.338" x2="-0.248985" y2="100.259" gradientUnits="userSpaceOnUse">
<stop stop-color="#9BCDFF"/>
<stop offset="1" stop-color="#0FE78D"/>
</linearGradient>
<clipPath id="clip0">
<rect width="150" height="150" fill="white"/>
</clipPath>
</defs>
</svg>
